<?xml version="1.0" standalone="no"?>
<!DOCTYPE svg PUBLIC "-//W3C//DTD SVG 20010904//EN"
 "http://www.w3.org/TR/2001/REC-SVG-20010904/DTD/svg10.dtd">
<svg version="1.0" xmlns="http://www.w3.org/2000/svg"
 width="1472.000000pt" height="832.000000pt" viewBox="0 0 1472.000000 832.000000"
 preserveAspectRatio="xMidYMid meet">

<g transform="translate(0.000000,832.000000) scale(0.100000,-0.100000)"
fill="#000000" stroke="none">
<path d="M4270 6308 c0 -40 0 -503 -1 -1028 -2 -525 -2 -1273 -1 -1661 l2
-705 63 4 c58 4 64 6 97 45 101 119 512 578 617 688 l81 86 159 -237 c87 -130
300 -449 473 -708 l315 -471 353 -1 c193 0 352 3 352 6 0 3 -14 26 -32 52 -86
127 -275 398 -337 482 -38 52 -144 205 -236 340 -211 311 -238 349 -464 670
-103 146 -191 271 -195 278 -9 15 29 58 334 386 113 122 250 271 305 332 87
96 208 229 347 382 22 23 38 42 36 42 -2 1 -174 4 -383 7 l-380 6 -22 -24
c-12 -13 -55 -69 -96 -124 -72 -98 -219 -264 -542 -615 -88 -95 -181 -196
-206 -223 l-46 -50 -6 384 c-4 211 -7 687 -7 1057 l0 672 -290 0 -290 0 0 -72z"/>
<path d="M10674 5173 c3 -665 5 -1443 5 -1730 l1 -523 293 0 292 0 -3 930 -2
931 352 -3 353 -3 61 -28 c112 -52 185 -153 204 -283 6 -41 10 -371 10 -806
l0 -738 298 0 297 0 -5 767 c-5 687 -8 776 -24 847 -44 196 -120 341 -247 468
-124 125 -257 201 -426 244 -253 64 -505 29 -762 -107 -51 -28 -96 -47 -100
-44 -3 4 -8 294 -10 646 l-3 639 -295 0 -294 0 5 -1207z"/>
<path d="M2662 6213 c-28 -60 -71 -157 -97 -218 -26 -60 -58 -134 -71 -163
-13 -29 -24 -55 -24 -57 0 -2 -11 -28 -24 -57 -30 -65 -128 -298 -166 -393
-87 -221 -299 -712 -377 -873 -54 -114 -352 -807 -475 -1107 -37 -88 -91 -220
-121 -292 l-54 -133 326 0 326 0 16 43 c9 23 51 135 94 250 l79 207 590 -2
590 -3 90 -247 91 -248 323 0 c177 0 322 2 322 4 0 15 -91 242 -222 556 -50
118 -158 382 -240 585 -328 810 -490 1212 -508 1260 -14 40 -143 359 -388 958
-8 20 -18 37 -22 37 -4 0 -30 -48 -58 -107z m73 -1425 c21 -57 103 -269 183
-473 79 -203 146 -379 149 -390 4 -20 0 -20 -279 -17 -156 1 -329 3 -385 5
l-101 2 79 205 c44 113 102 264 129 337 27 73 75 192 106 265 30 73 58 141 61
151 3 9 9 17 12 17 4 0 25 -46 46 -102z"/>
<path d="M13000 5465 l0 -427 133 4 c119 4 137 7 184 31 56 29 113 91 140 153
21 50 30 268 14 343 -26 123 -116 241 -219 289 -46 21 -76 27 -154 30 l-98 4
0 -427z"/>
<path d="M6654 5128 c-89 -95 -196 -211 -239 -258 l-77 -85 639 -5 640 -5 35
-27 c20 -15 46 -49 59 -75 21 -42 24 -65 27 -199 l4 -150 -348 4 c-215 3 -387
0 -449 -6 -215 -24 -371 -106 -496 -262 -225 -279 -210 -699 34 -943 180 -180
309 -211 843 -205 l272 3 75 80 76 80 3 -80 3 -80 270 0 270 0 3 690 c3 793
-5 1035 -38 1140 -67 211 -199 374 -373 460 -168 83 -194 86 -662 91 l-410 5
-161 -173z m1076 -1513 l0 -205 -382 0 c-352 0 -386 2 -424 19 -57 26 -86 76
-92 161 -5 77 8 126 46 172 48 57 52 57 470 58 l382 0 0 -205z"/>
<path d="M9170 5290 c-174 -15 -322 -78 -440 -187 -108 -100 -177 -215 -216
-359 -26 -95 -26 -321 0 -414 52 -188 182 -345 359 -434 134 -67 150 -69 582
-75 381 -6 391 -6 426 -28 55 -35 79 -87 79 -172 0 -106 -44 -179 -121 -201
-20 -6 -304 -10 -721 -10 -379 0 -688 -2 -688 -5 0 -3 39 -60 88 -129 48 -68
124 -178 170 -244 l84 -121 532 -1 c328 0 562 4 610 10 150 21 276 90 396 216
130 137 193 292 193 474 1 333 -208 606 -528 691 -72 19 -117 22 -435 28
l-355 6 -47 34 c-61 43 -88 104 -88 196 0 87 38 160 105 198 14 9 214 13 722
17 l702 5 -111 145 c-61 80 -151 193 -200 253 -79 94 -93 107 -121 107 -18 0
-223 2 -457 4 -234 3 -468 1 -520 -4z"/>
<path d="M13204 3321 c-102 -25 -175 -132 -160 -234 19 -123 152 -213 263
-177 157 51 207 230 97 343 -21 21 -49 44 -63 51 -35 18 -99 26 -137 17z"/>
</g>
</svg>
